<?xml version="1.0" encoding="UTF-8" standalone="no"?>
<!-- Created with Inkscape (http://www.inkscape.org/) -->

<svg
   version="1.1"
   id="svg1"
   width="148.67258"
   height="98.548676"
   viewBox="0 0 148.67258 98.548676"
   xmlns="http://www.w3.org/2000/svg"
   xmlns:svg="http://www.w3.org/2000/svg">
  <defs
     id="defs1" />
  <g
     id="g1"
     transform="translate(0.14414102,-0.67848712)">
    <path
       style="fill:#f47309;stroke:none"
       d="m 66.758519,18.306806 3.433393,2.190843 2.613579,4.393228 4.572497,5.097346 h 0.21239 c 2.639272,-3.23702 5.267403,-6.349042 9.132744,-8.168008 9.970369,-4.691895 23.414158,-3.099519 30.963548,5.194634 6.41762,7.050734 7.60199,18.184311 5.87292,27.185764 -0.55833,2.906619 -1.42248,6.116072 -2.95459,8.677138 -1.16984,1.955502 -3.22491,-0.958293 -4.14736,-1.880678 -0.93199,-0.931919 -2.71082,-3.495778 -4.2215,-3.245614 -1.07215,0.177544 -2.06174,1.472712 -2.78868,2.189351 -1.62014,1.597179 -3.20136,3.228575 -4.8826,4.762285 -0.60887,0.555442 -1.66006,1.320648 -1.66006,2.241108 0,0.847937 0.91014,1.57542 1.44923,2.123667 1.50681,1.532408 2.99963,3.104632 4.66998,4.460177 -5.77623,1.985699 -11.974841,1.854006 -17.840711,0.424779 l -1.40345,5.734513 -1.570001,8.920354 c 6.782525,1.631532 14.003342,1.770932 20.814162,0.207755 2.69588,-0.618747 5.27884,-1.42913 7.85841,-2.42803 0.96805,-0.374864 2.32841,-1.32674 3.39823,-1.08449 1.17659,0.266427 2.15463,1.646646 2.97345,2.449776 1.89612,1.859755 3.8551,3.647805 5.73449,5.527549 0.74561,0.745768 2.07905,2.693459 3.24133,2.700064 0.96286,0.0055 1.87131,-1.234086 2.48753,-1.840505 1.68064,-1.653899 3.43026,-3.237136 5.10288,-4.897828 0.64414,-0.639554 1.65646,-1.411643 1.88992,-2.333399 0.31891,-1.259163 -1.46032,-2.584354 -2.23214,-3.362614 -1.88945,-1.905217 -3.90831,-3.670989 -5.81665,-5.555524 -0.64304,-0.635016 -1.81973,-1.434711 -2.00388,-2.377759 -0.2418,-1.238305 1.40689,-2.983634 1.99359,-3.996146 1.67474,-2.890214 2.99071,-5.956353 4.01875,-9.132743 2.85043,-8.807046 3.21777,-18.819892 1.01256,-27.82301 C 136.95575,27.61117 133.66867,20.97931 128.53747,15.774817 117.76599,4.8494937 100.16823,2.5393767 85.873564,6.4725406 c -5.091149,1.400825 -9.786861,3.5396334 -14.0177,6.7260834 -1.88027,1.416121 -3.877455,3.071051 -5.097345,5.108182 M 48.70542,19.095994 c -3.711428,0.738158 -5.08236,4.704793 -7.656441,6.974666 -2.217054,1.955041 -5.091515,2.793042 -6.950237,5.194932 -1.323275,1.709972 -2.470073,3.582127 -4.089263,5.040748 -0.753238,0.67854 -1.69512,1.380622 -2.7553,1.39947 -1.434885,0.02551 -2.559391,-1.269676 -2.711469,-2.620346 -0.146845,-1.304197 0.438323,-2.370221 0.667196,-3.610516 0.24905,-1.349633 0.177096,-2.886999 0.0408,-4.247788 -0.12699,-1.267874 -1.305149,-2.299694 -1.325485,-3.515216 -0.01771,-1.058298 1.47253,-2.023507 0.94603,-3.121719 -0.515626,-1.075532 -2.833301,0.07724 -3.776451,-0.171736 -0.939242,-0.247941 -1.759672,-0.64912 -2.761063,-0.532957 -1.638645,0.190093 -3.015601,1.296989 -4.672566,1.51938 -2.952735,0.396305 -6.2522634,-0.615688 -8.674646,1.639452 -1.2042532,1.121111 -3.1865549,3.991466 -0.8622911,5.067873 1.0775843,0.499052 2.2646709,-0.114919 3.3776443,-0.06168 1.8945511,0.09063 4.8522988,1.8554 5.8430118,3.453732 0.798239,1.287812 0.115918,2.476124 -0.166809,3.793667 -0.195519,0.911146 -0.147386,1.840499 -0.05843,2.761062 0.398321,4.12185 1.96012,7.363041 4.493316,10.624917 0.760949,0.979838 1.461934,2.051955 2.437837,2.83657 1.959498,1.575413 4.446759,2.905112 6.993695,3.059255 1.393737,0.08435 3.212101,-1.0434 4.418047,-0.316056 1.303276,0.786047 2.753912,2.540168 3.262317,3.972306 0.576095,1.622814 0.309636,4.36084 2.727552,4.093435 2.899208,-0.32062 6.158476,-0.792954 8.913342,-1.765234 1.017528,-0.359114 1.756616,-1.362862 2.800567,-1.573547 0.747476,-0.150853 1.543797,0.06104 2.300155,0.03883 1.131952,-0.03323 2.294762,-0.22287 3.39823,-0.46956 6.971225,-1.558529 13.78223,-4.329589 20.389382,-6.993709 2.952205,-1.19038 5.861852,-2.471823 8.707966,-3.896653 0.951643,-0.476411 2.547687,-0.993164 3.01107,-2.043638 0.2947,-0.668079 -0.05702,-1.433408 -0.334762,-2.04487 -0.723237,-1.592247 -1.771942,-3.072705 -2.8272,-4.4601 -3.584253,-4.71237 -8.766021,-7.915828 -12.250762,-12.743363 -1.555644,-2.155083 -2.172279,-5.62537 -5.226744,-6.161399 -4.221771,-0.74088 -5.350225,5.885658 -9.345049,5.439179 -4.227342,-0.472464 -3.42662,-7.525304 -8.283193,-6.559389 M 22.581524,56.324506 v -0.212389 c -0.549956,-0.442072 -1.167172,-1.036746 -1.913458,-1.084859 -0.73175,-0.04718 -1.366366,0.477558 -1.892864,0.918197 -1.176989,0.985043 -2.280995,2.175728 -2.958127,3.564918 -1.533591,3.146277 0.02831,6.02559 3.15383,7.269203 3.440937,1.369124 7.428621,1.179465 11.044248,1.030479 8.312905,-0.342547 16.655881,-2.08435 24.63717,-4.398634 3.494016,-1.013141 6.982723,-2.019845 10.40708,-3.256095 1.008733,-0.364169 2.858027,-1.492384 3.92061,-0.937682 1.273882,0.665007 2.208796,3.304643 2.838757,4.540491 3.167764,6.214464 2.484731,14.168157 -0.779893,20.176992 -0.773328,1.423374 -1.732288,2.863646 -3.016464,3.875289 -0.830165,0.653995 -1.885131,0.972423 -2.685156,1.656311 -0.532898,0.455547 -0.977615,1.250996 -0.321805,1.813477 1.450227,1.24384 5.257376,0.599412 6.166986,-1.010101 1.203129,-2.128872 1.752076,-4.750028 2.854144,-6.972144 0.795009,-1.60298 1.675801,-3.180546 2.664454,-4.672567 0.734256,-1.108102 1.733338,-2.275408 2.003031,-3.610619 0.30262,-1.498231 -0.341101,-3.195512 -0.566648,-4.672567 -0.248829,-1.62949 -0.09427,-3.271307 0.201008,-4.881799 0.082,-0.447238 0.166331,-1.439592 0.83454,-1.354391 0.589204,0.07513 1.073866,0.719718 1.415181,1.14613 0.91101,1.138151 1.635998,2.474251 2.198491,3.815724 2.219141,5.29237 3.108833,11.721265 0.984907,17.203514 -0.75107,1.938656 -2.119565,2.700874 -3.59054,4.014567 -0.430586,0.384541 -0.958922,0.978314 -0.595854,1.581661 0.317145,0.52704 1.057746,0.666576 1.616792,0.722933 1.296931,0.130741 3.552564,0.05042 4.399833,-1.10201 0.462236,-0.628722 0.513493,-1.49495 0.598603,-2.24368 0.176611,-1.553765 0.289365,-3.116714 0.450848,-4.67256 0.144475,-1.391952 0.336305,-2.704672 0.790717,-4.035398 0.639781,-1.873555 1.597659,-3.712673 1.596512,-5.734514 -10e-4,-1.845159 -0.901353,-3.408737 -1.517319,-5.097345 -0.573441,-1.572024 -0.861607,-3.231491 -1.088982,-4.884956 -0.646152,-4.698869 0.262401,-9.140159 0.503355,-13.80531 2.738772,4.018724 -1.688582,11.415858 3.823009,13.592921 0.365615,-2.374357 -0.876845,-4.409634 -1.626138,-6.584071 -0.583825,-1.694254 -0.486886,-3.34418 -0.340499,-5.097339 0.05703,-0.683006 7.59e-4,-1.445882 0.287485,-2.084716 0.609499,-1.357998 2.60166,-2.010735 3.803046,-2.724399 3.335839,-1.981596 9.020016,-5.644587 8.164636,-10.270532 -0.31804,-1.71994 -1.725882,-3.017746 -3.279706,-3.685404 -2.891828,-1.242583 -6.440711,-1.622088 -9.557496,-1.624246 -1.318846,-9.14e-4 -4.59788,-0.342093 -4.974831,1.482098 -0.311149,1.505755 2.622285,1.478014 3.488105,1.488437 2.911079,0.03503 6.108243,-0.270109 8.920251,0.660255 2.483766,0.821765 3.019743,2.840682 1.500162,4.861869 -1.177216,1.565814 -2.87136,2.745927 -4.47351,3.840814 -3.506415,2.396228 -7.402115,4.228022 -11.256638,5.983754 -13.688136,6.234929 -28.442957,10.984173 -43.327437,13.294271 -5.135396,0.79703 -10.764074,1.790855 -15.929204,0.734878 -2.009539,-0.410837 -4.997487,-1.786306 -3.726967,-4.310497 0.267524,-0.531499 0.639409,-1.011786 1.042446,-1.446715 0.944526,-1.019266 2.088603,-1.859788 3.109299,-2.801644 m 37.805313,7.22124 c 1.006464,4.329345 3.523137,8.654297 6.267768,12.106195 1.197348,1.505898 2.47464,3.038488 4.139312,4.035398 1.846915,-4.532091 1.568978,-9.712763 -0.180642,-14.230089 -0.471032,-1.216144 -1.266436,-3.695256 -2.658601,-4.128707 -0.793628,-0.247099 -1.742393,0.261986 -2.470498,0.530467 -1.680111,0.619506 -3.395917,1.130089 -5.097339,1.686736 m -17.415931,4.460177 c 0.308622,2.521229 0.646395,5.195807 1.324615,7.646018 0.913232,3.299243 2.212277,6.470876 1.512836,9.982275 -0.433882,2.178229 -2.116294,3.0654 -3.659024,4.408998 -0.50671,0.441301 -1.32159,1.262145 -0.810872,1.982174 0.464129,0.654338 1.564819,0.604902 2.269646,0.669459 1.82153,0.166824 5.219436,0.40197 5.658296,-1.968225 0.596999,-3.224276 -0.710352,-6.570258 -0.942377,-9.764947 -0.149852,-2.063277 0.505293,-4.099572 0.557603,-6.159292 0.06237,-2.455733 -0.732539,-5.388454 -1.662935,-7.646018 l -4.247788,0.849558 m 36.955755,0.212389 c 0.146672,2.566121 1.457098,5.353674 0.473942,7.858407 -0.719277,1.832455 -2.01825,3.414824 -3.01763,5.097339 -0.391224,0.658649 -1.134742,1.634267 -0.935238,2.453614 0.132996,0.546185 0.701064,0.846595 1.153947,1.094069 0.978023,0.534429 3.336441,2.063201 4.239478,0.798749 0.652964,-0.91429 0.806753,-2.411775 0.972728,-3.496868 0.519669,-3.397439 0.05831,-6.728779 -1.003172,-9.982301 -0.436504,-1.337908 -0.825984,-2.844331 -1.884055,-3.823009 M 39.785065,91.581145 c 0.273492,-1.055874 0.65625,-2.098143 0.782839,-3.185841 0.228409,-1.962554 3.63e-4,-3.975223 0.08355,-5.946903 0.174686,-4.140498 2.022606,-7.910513 1.313126,-12.103952 -0.09249,-0.546659 -0.182461,-1.22914 -0.673005,-1.576069 -0.769879,-0.544468 -3.348529,-0.261027 -3.783494,0.659977 -0.559901,1.185545 0.0092,3.465367 0.119288,4.736858 0.283269,3.271917 0.735478,6.51488 0.06036,9.769912 -0.481283,2.320461 -1.738151,3.580622 -3.635662,4.8876 -0.623651,0.429562 -2.169631,1.278517 -1.859285,2.249171 0.228327,0.71413 1.262303,0.701511 1.858193,0.716593 1.924759,0.04871 3.816252,-0.168794 5.734092,-0.207346 z"
       id="path2053" />
  </g>
</svg>
